<?xml version="1.0" encoding="UTF-8" standalone="no"?>
<!DOCTYPE svg PUBLIC "-//W3C//DTD SVG 1.1//EN" "http://www.w3.org/Graphics/SVG/1.1/DTD/svg11.dtd">
<svg width="100%" height="100%" viewBox="0 0 554 456" version="1.1" xmlns="http://www.w3.org/2000/svg" xmlns:xlink="http://www.w3.org/1999/xlink" xml:space="preserve" style="fill-rule:evenodd;clip-rule:evenodd;stroke-linejoin:round;stroke-miterlimit:1.41421;">
    <g transform="matrix(1,0,0,1,-17.8207,-15.9067)">
        <g transform="matrix(1,0,0,1,-0.00024,0.00024)">
            <path d="M224.23,328.93C233.129,317.19 206.767,309.912 211.372,326.411C213.152,332.781 220.312,334.101 224.232,328.931L224.23,328.93Z" style="fill:rgb(0,66,28);fill-rule:nonzero;"/>
        </g>
        <g transform="matrix(1,0,0,1,-0.00024,0.00024)">
            <path d="M199.55,278.23C190.073,280.113 180.674,291.427 193.846,295.986C201.147,298.511 211.27,291.267 208.838,282.24C206.578,273.84 204.848,277.18 199.548,278.23L199.55,278.23Z" style="fill:rgb(0,110,58);fill-rule:nonzero;"/>
        </g>
        <g transform="matrix(1,0,0,1,-0.00024,0.00024)">
            <path d="M209.89,341.2C203.941,344.321 200.775,351.696 201.842,358.206C202.92,364.792 211.716,371.636 218.357,368.296C222.351,366.288 224.286,360.011 225.157,356.044C227.677,344.524 222.387,334.634 209.887,341.194L209.89,341.2Z" style="fill:rgb(237,28,36);fill-rule:nonzero;"/>
        </g>
        <g transform="matrix(1,0,0,1,-0.00024,0.00024)">
            <path d="M103.05,17.535C103.05,17.535 88.42,222.285 138.136,300.275C140.749,304.375 143.411,308.443 146.13,312.472C175.542,356.052 212.17,395.023 258.4,420.892C285.189,435.884 314.407,446.148 344.523,451.956C359.599,454.866 374.312,454.976 389.521,456.38C405.14,457.819 419.617,458.636 434.371,452.431C435.302,456.47 435.841,460.919 436.32,464.882C400.992,470.266 364.898,470.225 329.43,466.202C311.658,464.188 294.001,461.147 276.572,457.138C267.955,455.155 259.394,452.932 250.902,450.472C244.561,448.634 237.943,448.261 235.254,441.659C232.227,434.229 230.077,431.483 221.965,430.962C216.418,430.605 211.077,432.484 205.569,432.62C197.562,432.816 189.937,427.98 182.909,424.571C175.112,420.792 167.441,416.747 159.937,412.413C145.87,404.288 132.348,395.143 119.872,384.724C108.64,375.342 98.206,364.904 89.399,353.191C81.335,342.466 77.315,330.73 70.874,319.318C70.872,319.288 -46.076,112.058 103.062,17.538L103.05,17.535Z" style="fill:rgb(0,67,67);fill-rule:nonzero;"/>
        </g>
        <g transform="matrix(1,0,0,1,-0.00024,0.00024)">
            <path d="M226.99,249.87C214.848,244.413 214.813,260.645 220.038,266.669C225.999,273.538 232.54,271.938 232.102,262.253C231.912,257.983 232.072,252.163 226.992,249.873L226.99,249.87Z" style="fill:rgb(0,110,58);fill-rule:nonzero;"/>
        </g>
        <g transform="matrix(1,0,0,1,-0.00024,0.00024)">
            <circle cx="259.43" cy="167.37" r="2.194" style="fill:url(#_Radial1);"/>
        </g>
        <g transform="matrix(1,0,0,1,-0.00024,0.00024)">
            <circle cx="350.66" cy="266.15" r="2.193" style="fill:url(#_Radial2);"/>
        </g>
        <g transform="matrix(1,0,0,1,-0.00024,0.00024)">
            <circle cx="246.29" cy="124.5" r="2.193" style="fill:url(#_Radial3);"/>
        </g>
        <g transform="matrix(1,0,0,1,-0.00024,0.00024)">
            <circle cx="252.8" cy="86.101" r="2.194" style="fill:url(#_Radial4);"/>
        </g>
        <g transform="matrix(1,0,0,1,-0.00024,0.00024)">
            <circle cx="261.58" cy="70.169" r="2.193" style="fill:url(#_Radial5);"/>
        </g>
        <g transform="matrix(1,0,0,1,-0.00024,0.00024)">
            <circle cx="252.87" cy="141.04" r="2.194" style="fill:url(#_Radial6);"/>
        </g>
        <g transform="matrix(1,0,0,1,-0.00024,0.00024)">
            <circle cx="250.6" cy="97.587" r="2.193" style="fill:url(#_Radial7);"/>
        </g>
        <g transform="matrix(1,0,0,1,-0.00024,0.00024)">
            <circle cx="286.77" cy="232.77" r="2.193" style="fill:url(#_Radial8);"/>
        </g>
        <g transform="matrix(1,0,0,1,-0.00024,0.00024)">
            <circle cx="318.44" cy="267.96" r="2.193" style="fill:url(#_Radial9);"/>
        </g>
        <g transform="matrix(1,0,0,1,-0.00024,0.00024)">
            <circle cx="557.33" cy="174.27" r="2.193" style="fill:url(#_Radial10);"/>
        </g>
        <g transform="matrix(1,0,0,1,-0.00024,0.00024)">
            <circle cx="453.82" cy="245.84" r="2.193" style="fill:url(#_Radial11);"/>
        </g>
        <g transform="matrix(1,0,0,1,-0.00024,0.00024)">
            <circle cx="483.39" cy="237.08" r="2.193" style="fill:url(#_Radial12);"/>
        </g>
        <g transform="matrix(1,0,0,1,-0.00024,0.00024)">
            <circle cx="511.74" cy="221.91" r="2.194" style="fill:url(#_Radial13);"/>
        </g>
        <g transform="matrix(1,0,0,1,-0.00024,0.00024)">
            <path d="M253.67,112.73C249.53,109.128 240.772,112.786 236.298,113.743C231.834,114.699 230.455,114.806 229.647,119.972C228.566,126.886 234.881,134.179 232.052,140.941C229.133,147.917 221.814,149.293 218.004,142.345C214.813,136.525 218.379,132.804 221.511,127.899C225.383,121.834 221.98,117.355 227.034,111.952C232.564,106.04 238.245,106.489 245.376,105C254.511,103.093 256.401,96.314 258.452,87.618C255.382,90.076 252.016,89.785 249.75,91.16C247.028,92.812 245.262,95.928 242.776,97.851C231.185,106.82 235.955,90.458 238.191,83.648C238.809,81.768 240.395,81.131 240.697,78.986C240.855,77.862 239.533,75.582 239.672,74.437C240.103,70.875 241.372,68.834 244.108,66.117C246.988,63.256 251.195,61.844 253.548,58.529C249.72,56.73 245.58,54.309 241.736,54.116C239.205,53.99 236.162,55.263 236.28,51.29C228.035,48.974 223.616,48.048 215.557,52.029C208.266,55.629 201.97,60.844 195.333,65.467C190.021,69.167 173.961,79.442 179.865,86.621C183.036,90.477 192.008,89.413 195.997,87.922C200.996,86.054 203.729,81.425 206.251,76.89C208.858,72.204 209.586,70.682 214.83,67.108C217.868,65.036 222.13,61.021 225.735,60.645C236.556,59.518 220.64,71.169 221.806,75.267C222.587,78.012 226.927,78.398 228.619,79.493C235.356,83.849 232.139,88.151 230.427,95.74C229.384,100.364 222.744,115.582 215.766,113.568C207.218,111.1 218.636,101.261 219.693,97.981C222.039,90.695 209.759,90.546 204.898,91.282C198.505,92.25 196.131,96.093 201.021,100.81C203.354,103.06 204.423,101.236 204.442,104.821C204.458,107.872 202.565,109.099 203.348,112.618C204.569,118.104 208.153,122.207 207.866,128.203C207.572,134.343 203.487,139.315 202.944,145.276C202.096,154.574 210.625,155.309 212.767,161.97C214.89,168.57 204.802,175.616 201.927,180.842C202.692,182.956 204.002,184.762 205.762,185.988C204.312,184.979 214.931,173.831 216.435,173.171C224.262,169.738 222.412,175.206 223.919,181.247C227.491,195.559 240.565,203.073 252.582,209.671C256.572,211.862 265.726,214.172 268.104,218.141C271.921,224.513 264.164,234.566 262.924,240.827C261.516,247.944 264.158,253.731 269.39,258.784C270.94,258.307 272.504,257.141 273.272,255.919C266.388,251.727 265.649,240.356 270.561,234.3C276.751,226.671 292.145,223.764 280.35,211.144C277.838,208.457 271.605,208.571 268.169,207.081C263.01,204.841 257.238,202.789 252.71,199.378C248.95,196.547 245.537,194.117 242.94,190.119C240.932,187.027 241.438,184.242 240.046,181.345C237.835,176.741 233.019,175.895 231.718,170.135C228.348,155.217 244.3,146.615 256.941,150.198C257.914,149.065 258.899,146.826 258.936,145.389C247.212,144.998 234.38,146.727 238.672,130.167C239.306,127.723 240.196,125.125 242.549,123.806C246.054,121.84 246.48,124.311 249.14,124.924C252.577,125.716 253.158,126.427 254.756,122.997C255.836,120.647 255.646,114.467 253.656,112.737L253.67,112.73Z" style="fill:rgb(109,34,36);fill-rule:nonzero;"/>
        </g>
        <g transform="matrix(1,0,0,1,-0.00024,0.00024)">
            <path d="M276.32,60.945C275.413,61.379 274.506,61.923 273.599,62.597C266.972,67.527 263.426,76.78 260.592,84.237C257.085,93.464 252.341,103.072 252.674,113.069C253.097,125.813 257.373,136.285 250.627,148.26C247.992,152.936 243.612,156.267 243.021,161.846C242.563,166.162 244.571,172.046 241.996,175.893C238.941,180.46 229.396,182.02 224.432,183.371C218.772,184.911 214.952,185.221 209.511,182.68C208.194,182.065 194.742,171.52 199.979,169.434C202.091,168.593 204.235,168.091 206.46,167.923C206.659,164.623 203.343,151.817 198.589,151.729C195.904,151.68 193.976,156.709 190.241,156.943C185.661,157.225 177.027,150.47 176.985,145.513C176.928,139.008 183.402,140.346 187.533,137.376C189.969,135.625 190.195,132.348 192.842,130.945C195.965,129.29 198.844,132.444 201.338,128.375C204.837,122.663 197.446,119.027 192.765,119.118C190.214,119.167 187.185,119.743 185.077,121.39C181.782,123.965 183.689,125.205 182.509,126.932C179.862,130.807 175.595,132.962 176.629,125.127C177.163,121.071 180.136,116.209 182.334,113.427C189.588,104.24 192.753,96.295 196.721,85.635C194.824,88.475 179.976,90.522 179.327,86.885C180.424,93.037 181.235,100.98 180.054,107.127C178.96,112.813 175.149,118.015 172.739,123.191C165.531,138.674 165.952,152.322 178.423,165.274C184.849,171.947 196.657,176.473 201.048,184.91C209.023,200.235 196.359,219.295 212.652,232.431C223.684,241.326 240.341,228.477 252.647,231.505C259.47,233.183 260.422,238.072 264.491,242.648C266.147,244.511 267.879,244.884 269.627,246.28C273.231,249.159 275.001,254.714 279.127,256.94C283.476,259.288 287.769,253.895 290.706,258.202C293.191,261.848 288.639,267.196 285.02,267.471C280.889,267.784 278.006,263.389 275.796,260.407C275.068,259.424 273.313,263.102 273.223,263.444C272.648,265.63 275.021,268.477 276.244,269.979C279.632,274.147 285.398,275.239 284.272,282.29C280.202,283.521 275.435,286.712 271.372,286.808C267.336,286.903 264.635,283.554 260.323,284.825C249.446,288.034 262.499,313.096 273.322,310.852C279.924,309.483 267.685,296.475 282.455,293.942C288.783,292.856 289.935,294.046 292.802,287.46C293.588,285.649 294.722,280.417 296.718,279.64C300.147,278.304 301.082,284.147 303.995,286.206C308.755,283.974 306.162,268.159 303.72,264.157C301.938,261.239 298.78,262.091 298.673,257.063C298.592,253.302 300.879,249.479 304.929,249.813C304.027,245.735 299.94,239.727 295.47,238.97C291.606,238.317 288.063,242.855 283.882,242.756C277.242,242.599 274.126,237.156 270.708,232.39C265.378,224.956 258.877,221.298 249.749,220.22C242.312,219.341 209.717,225.066 216.7,206.701C218.065,203.113 219.64,203.869 222.419,202.719C226.409,201.068 227.291,199.859 230.265,197.298C235.539,192.757 241.021,194.476 246.362,191.21C249.23,189.458 249.238,186.773 252.688,187.278C254.593,187.557 258.701,192.109 260.515,193.409C264.383,196.185 269.99,198.343 273.192,202.157C272.189,198.685 269.417,192.821 266.873,190.237C264.795,188.126 261.22,187.086 259.133,184.755C256.916,182.278 257.036,180.283 256.098,177.444C254.688,173.184 251.92,169.671 252.796,164.771C253.294,161.984 255.625,156.419 258.546,155.56C261.6,173.902 270.28,193.25 279.335,209.416C289.488,227.541 302.302,244.396 319.078,256.88C323.103,259.878 328.013,264.302 333.252,264.687C336.002,264.888 341.58,263.321 336.967,259.991C350.783,269.964 369.664,273.639 386.084,276.27C392.314,277.266 399.842,276.136 405.906,274.743C409.212,273.985 418.611,271.259 418.476,266.745C418.331,261.847 405.937,258.763 402.402,257.298C400.198,256.386 407.915,253.522 408.304,253.395C411.821,252.253 416.878,251.507 419.634,248.841C428.198,240.552 427.046,229.477 417.071,223C408.862,217.668 399.938,214.432 392.176,208.063C382.924,200.472 373.75,192.147 366.178,182.829C353.742,167.518 356.356,143.016 354.461,124.354C353.817,117.998 353.389,110.907 349.286,105.783C343.299,98.31 335.85,92.344 330.153,84.466C327.916,81.372 325.803,78.894 323.487,75.431L276.287,60.918L276.32,60.945Z" style="fill:rgb(151,27,30);fill-rule:nonzero;"/>
        </g>
        <g transform="matrix(1,0,0,1,-0.00024,0.00024)">
            <path d="M317.51,75.083L571.56,142.239C571.56,142.239 522.226,264.859 409.79,245.359C389.409,241.823 369.634,234.05 353.665,220.68C344.434,212.951 336.339,203.622 330.124,193.305C327.28,188.584 324.893,183.599 324.069,178.102C323.292,172.899 324.528,167.583 323.352,162.403C321.77,155.431 315.458,150.804 313.657,143.967C311.618,136.222 312.335,127.758 312.233,119.836C312.159,113.987 312.469,108.198 312.954,102.378C312.964,102.388 314.264,86.789 317.514,75.091L317.51,75.083Z" style="fill:rgb(255,194,14);fill-rule:nonzero;"/>
        </g>
        <g transform="matrix(1,0,0,1,-0.00024,0.00024)">
            <path d="M570.65,142.94C569.343,144.246 567.466,145.108 565.859,145.959C555.955,151.198 545.132,154.92 534.455,158.204C526.455,160.665 518.344,162.773 510.164,164.547C505.629,165.531 500.939,166.757 496.318,167.217C494.627,167.384 492.814,166.989 491.246,167.727C489.974,168.325 489.199,169.633 487.865,170.211C486.064,170.991 484.119,170.346 483.189,168.454C450.712,175.051 414.191,171.39 382.489,162.429C374.964,160.302 366.196,158.091 359.971,153.162C358.362,156.49 355.461,157 353.166,154.241C352,152.838 351.793,151.386 351.094,149.908C350.16,147.932 347.996,147.691 346.2,146.842C343.575,145.6 340.993,143.995 338.672,142.25C334.573,139.17 330.744,135.714 327.385,131.836C322.049,125.678 317.969,118.463 315.801,110.59C313.597,102.582 313.392,94.092 314.945,85.945C315.057,85.358 317.344,75.57 317.973,75.737C318.173,75.807 570.643,142.96 570.643,142.96L570.65,142.94Z" style="fill:rgb(247,147,29);fill-rule:nonzero;"/>
        </g>
        <g transform="matrix(1,0,0,1,-0.00024,0.00024)">
            <path d="M566.42,139.42C566.231,139.37 564.326,140.916 564.07,141.072C555.6,146.276 545.591,149.576 536.213,152.657C528.581,155.164 520.832,157.322 513.012,159.165C504.815,161.096 496.039,163.536 487.653,164.078C489.196,167.564 481.903,168.968 483.441,165.046C480.612,164.717 476.624,165.36 473.761,165.632C469.786,166.009 465.802,166.297 461.814,166.499C453.484,166.922 445.13,166.96 436.794,166.581C419.108,165.778 401.495,163.084 384.45,158.267C379.926,156.989 375.446,155.556 371.036,153.928C368.684,153.06 362.126,151.731 360.677,149.579C361.698,151.094 360.812,154.288 358.21,153.744C354.278,152.924 356.993,149.612 355.905,147.494C354.921,145.58 349.066,143.523 347.134,142.275C342.097,139.018 337.353,135.271 333.204,130.927C326.821,124.241 321.974,116.139 319.696,107.145C317.782,99.584 317.688,91.617 319.192,83.975C319.299,83.427 321.477,74.275 322.057,74.429C322.177,74.452 566.087,139.325 566.407,139.405L566.42,139.42Z" style="fill:rgb(255,242,0);fill-rule:nonzero;"/>
        </g>
        <g transform="matrix(1,0,0,1,-0.00024,0.00024)">
            <path d="M389,95.23C389,95.23 384.451,113.428 409.797,121.876C435.143,130.325 475.111,122.851 479.336,118.627C483.559,114.402 475.438,64.035 447.492,60.136C419.542,56.233 395.492,67.931 388.992,95.227L389,95.23Z" style="fill:rgb(255,194,14);fill-rule:nonzero;"/>
        </g>
        <g transform="matrix(1,0,0,1,-0.00024,0.00024)">
            <path d="M351.93,200.02C353.758,193.545 343.35,190.601 345.004,198.223C345.734,201.573 350.624,204.663 351.934,200.023L351.93,200.02Z" style="fill:rgb(247,147,29);fill-rule:nonzero;"/>
        </g>
        <g transform="matrix(1,0,0,1,-0.00024,0.00024)">
            <path d="M351.42,198.79C352.125,195.615 346.611,192.783 347.674,197.569C348.184,199.809 350.634,202.349 351.424,198.789L351.42,198.79Z" style="fill:rgb(255,242,0);fill-rule:nonzero;"/>
        </g>
        <g transform="matrix(1,0,0,1,-0.00024,0.00024)">
            <path d="M395.55,238.04C397.378,231.565 386.97,228.621 388.622,236.242C389.352,239.592 394.242,242.682 395.552,238.042L395.55,238.04Z" style="fill:rgb(247,147,29);fill-rule:nonzero;"/>
        </g>
        <g transform="matrix(1,0,0,1,-0.00024,0.00024)">
            <path d="M393.93,235.55C394.637,232.374 389.119,229.542 390.182,234.327C390.682,236.577 393.142,239.117 393.932,235.547L393.93,235.55Z" style="fill:rgb(255,242,0);fill-rule:nonzero;"/>
        </g>
        <g transform="matrix(1,0,0,1,-0.00024,0.00024)">
            <path d="M327.17,150.93C328.996,144.455 318.59,141.511 320.242,149.133C320.972,152.483 325.862,155.573 327.172,150.933L327.17,150.93Z" style="fill:rgb(247,147,29);fill-rule:nonzero;"/>
        </g>
        <g transform="matrix(1,0,0,1,-0.00024,0.00024)">
            <path d="M326.66,150.92C327.367,147.745 321.851,144.913 322.914,149.698C323.414,151.948 325.874,154.488 326.664,150.918L326.66,150.92Z" style="fill:rgb(255,242,0);fill-rule:nonzero;"/>
        </g>
        <g transform="matrix(1,0,0,1,-0.00024,0.00024)">
            <path d="M425.04,210.74C426.868,204.265 416.462,201.321 418.114,208.943C418.844,212.293 423.734,215.383 425.044,210.743L425.04,210.74Z" style="fill:rgb(247,147,29);fill-rule:nonzero;"/>
        </g>
        <g transform="matrix(1,0,0,1,-0.00024,0.00024)">
            <path d="M424.54,209.51C425.245,206.335 419.731,203.503 420.794,208.288C421.294,210.538 423.744,213.078 424.544,209.508L424.54,209.51Z" style="fill:rgb(255,242,0);fill-rule:nonzero;"/>
        </g>
        <g transform="matrix(1,0,0,1,-0.00024,0.00024)">
            <path d="M388.05,185.74C389.878,179.265 379.47,176.322 381.124,183.944C381.854,187.294 386.744,190.384 388.054,185.744L388.05,185.74Z" style="fill:rgb(247,147,29);fill-rule:nonzero;"/>
        </g>
        <g transform="matrix(1,0,0,1,-0.00024,0.00024)">
            <path d="M387.55,184.51C388.255,181.334 382.741,178.503 383.804,183.288C384.304,185.538 386.764,188.078 387.554,184.508L387.55,184.51Z" style="fill:rgb(255,242,0);fill-rule:nonzero;"/>
        </g>
        <g transform="matrix(1,0,0,1,-0.00024,0.00024)">
            <path d="M469.7,236.44C471.528,229.965 461.122,227.022 462.774,234.644C463.504,237.994 468.394,241.084 469.704,236.444L469.7,236.44Z" style="fill:rgb(247,147,29);fill-rule:nonzero;"/>
        </g>
        <g transform="matrix(1,0,0,1,-0.00024,0.00024)">
            <path d="M467.1,234.93C467.805,231.755 462.289,228.923 463.352,233.708C463.852,235.948 466.302,238.488 467.102,234.928L467.1,234.93Z" style="fill:rgb(255,242,0);fill-rule:nonzero;"/>
        </g>
        <g transform="matrix(1,0,0,1,-0.00024,0.00024)">
            <path d="M504.57,210.74C506.398,204.265 495.99,201.321 497.642,208.943C498.372,212.293 503.262,215.383 504.572,210.743L504.57,210.74Z" style="fill:rgb(247,147,29);fill-rule:nonzero;"/>
        </g>
        <g transform="matrix(1,0,0,1,-0.00024,0.00024)">
            <path d="M501.97,208.25C502.677,205.074 497.161,202.243 498.224,207.028C498.724,209.278 501.184,211.818 501.974,208.248L501.97,208.25Z" style="fill:rgb(255,242,0);fill-rule:nonzero;"/>
        </g>
        <g transform="matrix(1,0,0,1,-0.00024,0.00024)">
            <path d="M462.75,189.21C464.578,182.735 454.17,179.792 455.824,187.414C456.554,190.764 461.444,193.854 462.754,189.214L462.75,189.21Z" style="fill:rgb(247,147,29);fill-rule:nonzero;"/>
        </g>
        <g transform="matrix(1,0,0,1,-0.00024,0.00024)">
            <path d="M462.24,187.98C462.947,184.804 457.429,181.973 458.492,186.758C458.992,188.998 461.452,191.548 462.242,187.978L462.24,187.98Z" style="fill:rgb(255,242,0);fill-rule:nonzero;"/>
        </g>
        <g transform="matrix(1,0,0,1,-0.00024,0.00024)">
            <path d="M532.32,171.25C529.986,177.56 540.129,181.317 539.084,173.589C538.634,170.199 533.994,166.729 532.324,171.249L532.32,171.25Z" style="fill:rgb(247,147,29);fill-rule:nonzero;"/>
        </g>
        <g transform="matrix(1,0,0,1,-0.00024,0.00024)">
            <path d="M532.73,172.52C531.777,175.63 537.048,178.889 536.369,174.035C536.049,171.755 533.799,169.025 532.729,172.525L532.73,172.52Z" style="fill:rgb(255,242,0);fill-rule:nonzero;"/>
        </g>
        <g transform="matrix(1,0,0,1,-0.00024,0.00024)">
            <circle cx="365.77" cy="179.88" r="2.193" style="fill:url(#_Radial14);"/>
        </g>
        <g transform="matrix(1,0,0,1,-0.00024,0.00024)">
            <circle cx="361.87" cy="220.34" r="2.193" style="fill:url(#_Radial15);"/>
        </g>
        <g transform="matrix(1,0,0,1,-0.00024,0.00024)">
            <circle cx="390.14" cy="211.08" r="2.193" style="fill:url(#_Radial16);"/>
        </g>
        <g transform="matrix(1,0,0,1,-0.00024,0.00024)">
            <circle cx="411.34" cy="235.55" r="2.194" style="fill:url(#_Radial17);"/>
        </g>
        <g transform="matrix(1,0,0,1,-0.00024,0.00024)">
            <circle cx="485.19" cy="214.49" r="2.193" style="fill:url(#_Radial18);"/>
        </g>
        <g transform="matrix(1,0,0,1,-0.00024,0.00024)">
            <circle cx="443.51" cy="191.58" r="2.193" style="fill:url(#_Radial19);"/>
        </g>
        <g transform="matrix(1,0,0,1,-0.00024,0.00024)">
            <circle cx="502.25" cy="184.27" r="2.193" style="fill:url(#_Radial20);"/>
        </g>
        <g transform="matrix(1,0,0,1,-0.00024,0.00024)">
            <circle cx="434.49" cy="206.69" r="2.193" style="fill:url(#_Radial21);"/>
        </g>
        <g transform="matrix(1,0,0,1,-0.00024,0.00024)">
            <circle cx="445.71" cy="238.37" r="2.193" style="fill:url(#_Radial22);"/>
        </g>
        <g transform="matrix(1,0,0,1,-0.00024,0.00024)">
            <circle cx="502.25" cy="194.5" r="2.194" style="fill:url(#_Radial23);"/>
        </g>
        <g transform="matrix(1,0,0,1,-0.00024,0.00024)">
            <circle cx="426.7" cy="220.34" r="2.193" style="fill:url(#_Radial24);"/>
        </g>
        <g transform="matrix(1,0,0,1,-0.00024,0.00024)">
            <circle cx="369.91" cy="201.33" r="2.193" style="fill:url(#_Radial25);"/>
        </g>
        <g transform="matrix(1,0,0,1,-0.00024,0.00024)">
            <circle cx="480.8" cy="178.42" r="2.193" style="fill:url(#_Radial26);"/>
        </g>
        <g transform="matrix(1,0,0,1,-0.00024,0.00024)">
            <circle cx="418.9" cy="182.8" r="2.193" style="fill:url(#_Radial27);"/>
        </g>
        <g transform="matrix(1,0,0,1,-0.00024,0.00024)">
            <circle cx="404.03" cy="218.39" r="2.193" style="fill:url(#_Radial28);"/>
        </g>
        <g transform="matrix(1,0,0,1,-0.00024,0.00024)">
            <circle cx="396.96" cy="175.98" r="2.193" style="fill:url(#_Radial29);"/>
        </g>
        <g transform="matrix(1,0,0,1,-0.00024,0.00024)">
            <circle cx="280.96" cy="95.555" r="2.193" style="fill:url(#_Radial30);"/>
        </g>
        <g transform="matrix(1,0,0,1,-0.00024,0.00024)">
            <circle cx="529.66" cy="169.28" r="2.193" style="fill:url(#_Radial31);"/>
        </g>
        <g transform="matrix(1,0,0,1,-0.00024,0.00024)">
            <circle cx="552.94" cy="159.65" r="2.193" style="fill:url(#_Radial32);"/>
        </g>
        <g transform="matrix(1,0,0,1,-0.00024,0.00024)">
            <circle cx="542.69" cy="189.72" r="2.193" style="fill:url(#_Radial33);"/>
        </g>
        <g transform="matrix(1,0,0,1,-0.00024,0.00024)">
            <circle cx="454.48" cy="215.46" r="2.193" style="fill:url(#_Radial34);"/>
        </g>
        <g transform="matrix(1,0,0,1,-0.00024,0.00024)">
            <circle cx="374.26" cy="231.87" r="2.194" style="fill:url(#_Radial35);"/>
        </g>
        <g transform="matrix(1,0,0,1,-0.00024,0.00024)">
            <circle cx="525.16" cy="198.89" r="2.193" style="fill:url(#_Radial36);"/>
        </g>
        <g transform="matrix(1,0,0,1,-0.00024,0.00024)">
            <circle cx="492.5" cy="224.72" r="2.193" style="fill:url(#_Radial37);"/>
        </g>
        <g transform="matrix(1,0,0,1,-0.00024,0.00024)">
            <circle cx="475.44" cy="202.79" r="2.193" style="fill:url(#_Radial38);"/>
        </g>
        <g transform="matrix(1,0,0,1,-0.00024,0.00024)">
            <path d="M411.64,112.26C401.884,110.679 393.753,107.007 394.226,95.803C394.556,87.924 398.974,79.211 404.755,74.111C409.298,70.101 416.839,66.224 422.673,64.704C426.302,63.759 437.265,61.528 440.005,65.689C441.415,67.831 439.253,68.444 439.253,70.698C439.257,74.928 442.325,79.617 444.845,83.152C447.169,86.416 453.542,91.714 450.601,96.064C448.665,98.925 442.982,97.982 440.458,100.054C437.749,102.273 436.323,106.565 432.973,108.727C427.253,112.417 418.123,113.317 411.623,112.267L411.64,112.26Z" style="fill:url(#_Radial39);fill-rule:nonzero;"/>
        </g>
        <g transform="matrix(1,0,0,1,-0.00024,0.00024)">
            <path d="M434.51,115.84C439.324,114.278 444.049,111.616 449.102,107.757C458.42,100.64 469.356,82.905 462.801,70.787C471.061,71.436 476.367,89.031 477.387,95.556C478.514,102.781 481.551,113.012 479.168,120.093C476.391,128.351 469.291,136.611 462.203,141.463C452.289,148.247 437.758,148.415 426.185,147.237C401.999,144.775 385.658,119.192 388.701,95.733C387.068,108.33 399.922,112.905 409.801,115.521C419.321,118.041 427.031,118.271 434.511,115.841L434.51,115.84Z" style="fill:rgb(150,115,72);fill-opacity:0.11;fill-rule:nonzero;"/>
        </g>
        <g transform="matrix(1,0,0,1,-0.00024,0.00024)">
            <path d="M309.1,82.348C309.449,81.917 309.823,81.501 310.222,81.104C309.83,88.822 312.069,96.196 312.124,103.345C312.165,108.729 311.124,114.091 311.336,119.477C311.392,120.9 312.153,131.406 313.246,132.126C306.211,127.488 306.635,115.787 305.422,108.408C304.092,100.258 303.512,89.259 309.102,82.356L309.1,82.348Z" style="fill:rgb(109,34,36);fill-rule:nonzero;"/>
        </g>
        <g transform="matrix(1,0,0,1,-0.00024,0.00024)">
            <path d="M362.81,230.83C366.097,238.263 370.851,245.333 378.267,248.355C382.703,250.162 386.66,252.39 391.361,253.39C393.326,253.81 403.06,256.994 404.121,256.406C391.391,263.455 375.162,257.939 363.33,251.507C352.769,245.767 343.652,238.464 339.828,226.674C336.109,215.204 335.084,202.988 330.867,191.666C329.922,189.129 328.633,184.933 326.924,182.866C322.756,177.828 320.58,180.18 321.133,172.653C321.543,167.116 322.201,161.193 319.68,156.024C316.359,149.219 308.143,145.984 302.886,140.849C300.781,138.791 298.783,137.262 297.065,134.941C291.612,127.571 289.333,116.231 289.835,107.253C290.013,104.085 290.724,95.797 295.118,95.651C299.78,95.495 302.023,106.916 303.427,110.347C307.272,119.747 311.631,130.594 318.438,138.302C324.793,145.496 333.329,150.476 341.438,155.408C346.141,158.267 350.092,160.036 351.524,165.331C354.08,174.792 353.506,185.91 355.041,195.99C356.811,207.69 357.951,219.89 362.791,230.83L362.81,230.83Z" style="fill:rgb(192,39,45);fill-rule:nonzero;"/>
        </g>
        <g transform="matrix(1,0,0,1,-0.00024,0.00024)">
            <path d="M283.88,77.117C275.329,87.177 272.242,97.952 272.779,110.977C273.079,118.26 274.495,134.088 283.881,135.642C288.898,136.472 291.602,129.908 291.068,125.783C289.647,114.794 286.711,104.623 287.674,93.447C288.077,88.758 291.688,82.881 291.191,78.493C290.581,73.207 286.921,73.533 283.871,77.12L283.88,77.117Z" style="fill:rgb(109,34,36);fill-rule:nonzero;"/>
        </g>
        <g transform="matrix(1,0,0,1,-0.00024,0.00024)">
            <path d="M269.26,147.22C264.556,136.766 261.372,158.852 261.594,162.161C262.186,171.017 264.629,179.8 267.419,188.19C271.222,199.632 275.323,212.608 281.897,222.797C288.093,232.402 296.67,241.566 305.709,248.521C311.898,253.281 317.836,258.496 324.656,262.359C331.414,266.189 338.582,266.785 345.703,269.503C347.226,266.406 343.088,264.599 340.912,262.767C336.662,259.189 333,255.506 329.701,250.945C318.396,235.312 313.306,216.01 312.154,196.914C312.066,195.458 312.418,190.622 311.322,189.594C309.112,187.519 305.099,189.487 302.502,188.611C300.316,187.871 298.011,185.446 296.188,184.05C290.059,179.356 284.452,174.156 279.519,168.204C275.195,162.987 272.442,161.685 271.21,155.128C270.475,151.219 268.787,148.319 266.823,144.784" style="fill:rgb(192,39,45);fill-rule:nonzero;"/>
        </g>
        <g transform="matrix(1,0,0,1,-0.00024,0.00024)">
            <circle cx="276.97" cy="203.76" r="2.193" style="fill:url(#_Radial40);"/>
        </g>
        <g transform="matrix(1,0,0,1,-0.00024,0.00024)">
            <circle cx="361.14" cy="251.51" r="2.193" style="fill:url(#_Radial41);"/>
        </g>
        <g transform="matrix(1,0,0,1,-0.00024,0.00024)">
            <circle cx="331.81" cy="172.57" r="2.193" style="fill:url(#_Radial42);"/>
        </g>
        <g transform="matrix(1,0,0,1,-0.00024,0.00024)">
            <circle cx="311.01" cy="164.12" r="2.193" style="fill:url(#_Radial43);"/>
        </g>
        <g transform="matrix(1,0,0,1,-0.00024,0.00024)">
            <circle cx="285.34" cy="125.29" r="2.194" style="fill:url(#_Radial44);"/>
        </g>
        <g transform="matrix(1,0,0,1,-0.00024,0.00024)">
            <circle cx="390.5" cy="246.78" r="2.193" style="fill:url(#_Radial45);"/>
        </g>
        <g transform="matrix(1,0,0,1,-0.00024,0.00024)">
            <circle cx="307.76" cy="76.058" r="2.193" style="fill:url(#_Radial46);"/>
        </g>
        <g transform="matrix(1,0,0,1,-0.00024,0.00024)">
            <circle cx="267.61" cy="96.346" r="2.193" style="fill:url(#_Radial47);"/>
        </g>
        <g transform="matrix(1,0,0,1,-0.00024,0.00024)">
            <circle cx="281.69" cy="97.017" r="2.193" style="fill:url(#_Radial48);"/>
        </g>
        <g transform="matrix(1,0,0,1,-0.00024,0.00024)">
            <circle cx="277.42" cy="155.14" r="2.194" style="fill:url(#_Radial49);"/>
        </g>
        <g transform="matrix(1,0,0,1,-0.00024,0.00024)">
            <circle cx="289.24" cy="164.77" r="2.193" style="fill:url(#_Radial50);"/>
        </g>
        <g transform="matrix(1,0,0,1,-0.00024,0.00024)">
            <circle cx="288.27" cy="208.39" r="2.194" style="fill:url(#_Radial51);"/>
        </g>
        <g transform="matrix(1,0,0,1,-0.00024,0.00024)">
            <circle cx="307.28" cy="230.09" r="2.193" style="fill:url(#_Radial52);"/>
        </g>
        <g transform="matrix(1,0,0,1,-0.00024,0.00024)">
            <circle cx="376" cy="262.74" r="2.193" style="fill:url(#_Radial53);"/>
        </g>
        <g transform="matrix(1,0,0,1,-0.00024,0.00024)">
            <circle cx="338.47" cy="250.56" r="2.193" style="fill:url(#_Radial54);"/>
        </g>
        <g transform="matrix(1,0,0,1,-0.00024,0.00024)">
            <circle cx="386.73" cy="268.35" r="2.193" style="fill:url(#_Radial55);"/>
        </g>
        <g transform="matrix(1,0,0,1,-0.00024,0.00024)">
            <circle cx="382.02" cy="245.65" r="2.194" style="fill:url(#_Radial56);"/>
        </g>
        <g transform="matrix(1,0,0,1,-0.00024,0.00024)">
            <circle cx="281.69" cy="70.071" r="2.193" style="fill:url(#_Radial57);"/>
        </g>
        <g transform="matrix(1,0,0,1,-0.00024,0.00024)">
            <circle cx="345.3" cy="212.54" r="2.193" style="fill:url(#_Radial58);"/>
        </g>
        <g transform="matrix(1,0,0,1,-0.00024,0.00024)">
            <circle cx="356.51" cy="237.4" r="2.193" style="fill:url(#_Radial59);"/>
        </g>
        <g transform="matrix(1,0,0,1,-0.00024,0.00024)">
            <circle cx="294.85" cy="143.33" r="2.194" style="fill:url(#_Radial60);"/>
        </g>
        <g transform="matrix(1,0,0,1,-0.00024,0.00024)">
            <circle cx="261.64" cy="123.03" r="2.193" style="fill:url(#_Radial61);"/>
        </g>
        <g transform="matrix(1,0,0,1,-0.00024,0.00024)">
            <circle cx="261.46" cy="106.77" r="2.193" style="fill:url(#_Radial62);"/>
        </g>
        <g transform="matrix(1,0,0,1,-0.00024,0.00024)">
            <circle cx="297.04" cy="109.45" r="2.193" style="fill:url(#_Radial63);"/>
        </g>
        <g transform="matrix(1,0,0,1,-0.00024,0.00024)">
            <circle cx="344.32" cy="186.46" r="2.193" style="fill:url(#_Radial64);"/>
        </g>
        <g transform="matrix(1,0,0,1,-0.00024,0.00024)">
            <circle cx="330.67" cy="161.36" r="2.193" style="fill:url(#_Radial65);"/>
        </g>
        <g transform="matrix(1,0,0,1,-0.00024,0.00024)">
            <circle cx="319.95" cy="208.15" r="2.194" style="fill:url(#_Radial66);"/>
        </g>
        <g transform="matrix(1,0,0,1,-0.00024,0.00024)">
            <circle cx="297.04" cy="198.65" r="2.194" style="fill:url(#_Radial67);"/>
        </g>
        <g transform="matrix(1,0,0,1,-0.00024,0.00024)">
            <circle cx="324.22" cy="193.53" r="2.193" style="fill:url(#_Radial68);"/>
        </g>
        <g transform="matrix(1,0,0,1,-0.00024,0.00024)">
            <circle cx="331.16" cy="233.01" r="2.194" style="fill:url(#_Radial69);"/>
        </g>
        <g transform="matrix(1,0,0,1,-0.00024,0.00024)">
            <circle cx="268.77" cy="176.22" r="2.193" style="fill:url(#_Radial70);"/>
        </g>
        <g transform="matrix(1,0,0,1,-0.00024,0.00024)">
            <path d="M336.68,263.69C336.084,261.143 328.448,255.475 325.868,257.61C323.345,259.694 327.821,266.924 324.55,270.149C321.118,273.53 317.416,270.02 316.024,266.664C312.83,258.954 310.85,251.119 306.913,243.707C304.592,239.337 302.681,235.801 297.14,235.434C290.756,235.013 286.55,240.218 282.041,244.219C275.138,250.346 261.079,262.936 251.712,255.928C243.327,249.655 247.747,235.369 251.201,227.766C255.746,217.762 260.5,210.643 259.998,199.281C259.845,195.817 258.387,192.426 258.385,188.982C258.383,186.136 260.391,182.96 260.331,180.558C260.211,175.673 258.281,173.855 253.688,171.711C245.866,168.061 236.401,169.729 228.624,166.1C222.678,163.326 218.164,157.715 216.798,151.154C215.678,145.766 219.374,137.902 212.878,136.139C207.236,134.607 199.78,141.049 198.404,145.921C196.575,152.395 200.769,153.719 202.5,158.885C204.402,164.565 202.821,168.333 207.192,173.089C211.077,177.319 215.4,179.594 220.823,181.014C233.466,184.323 247.975,183.34 246.303,200.14C245.33,209.913 242.58,225.812 234.293,232.291C223.718,226.666 238.009,213.071 233.834,206.347C231.006,201.793 226.362,205.963 225.848,210.262C225.245,215.31 230.276,216.296 225.196,220.678C218.225,226.69 204.438,212.531 201.656,205.698C198.619,198.24 206.383,192.039 200.676,185.127C199.491,190.543 195.164,193.357 194.049,198.565C192.652,205.103 194.494,210.151 199.233,214.989C205.412,221.299 213.265,224.668 220.68,229.094C228.914,234.009 230.378,242.948 232.826,251.531C234.775,258.368 238.267,261.83 243.437,266.15C248.532,270.411 250.668,276.197 258.645,274.972C274.484,272.542 282.288,248.046 297.044,262.728C305.492,271.134 309.67,282.373 321.9,285.664C324.722,286.424 331.14,288.017 328.868,292.486C327.587,295.008 318.372,295.984 316.061,295.869C308.781,295.513 306.187,293.574 307.778,287.211C309.059,282.084 308.905,279.392 305.327,275.023C299.334,267.706 298.411,274.054 298.503,281.165C298.626,290.642 300.783,299.253 311.176,301.259C318.649,302.701 328.446,304.451 335.59,300.652C339.112,298.781 338.436,297.289 341.02,294.533C342.649,292.794 345.258,292.558 346.903,291.121C356.196,282.988 334.516,284.578 332.733,277.254C331.433,272.014 337.663,267.984 336.663,263.714L336.68,263.69Z" style="fill:rgb(192,39,45);fill-rule:nonzero;"/>
        </g>
        <g transform="matrix(1,0,0,1,-0.00024,0.00024)">
            <path d="M226.41,282.91C234.673,275.592 220.16,257.142 213.029,265.178C211.058,267.399 211.915,272.043 212.52,274.571C214.02,280.811 219.76,288.791 226.41,282.911L226.41,282.91Z" style="fill:rgb(108,157,49);fill-rule:nonzero;"/>
        </g>
        <g transform="matrix(1,0,0,1,-0.00024,0.00024)">
            <path d="M174.51,175.88C183.409,164.14 157.048,156.863 161.652,173.361C163.442,179.731 170.592,181.041 174.512,175.881L174.51,175.88Z" style="fill:rgb(202,219,42);fill-rule:nonzero;"/>
        </g>
        <g transform="matrix(1,0,0,1,-0.00024,0.00024)">
            <path d="M167.24,210.42C176.847,214.955 188.466,210.075 179.602,199.39C175.027,193.875 168.385,190.421 164.12,184.283C159.763,178.013 155.701,170.158 153.866,162.836C152.907,159.006 152.346,149.757 146.335,154.975C140.341,160.188 145.144,175.232 146.904,181.643C149.874,192.483 156.604,205.413 167.234,210.423L167.24,210.42Z" style="fill:rgb(0,110,58);fill-rule:nonzero;"/>
        </g>
        <g transform="matrix(1,0,0,1,-0.00024,0.00024)">
            <path d="M124.62,178.57C123.145,172.566 109.099,131.781 124.277,132.705C131.32,133.135 136.005,144.134 136.988,149.801C139.718,165.551 144.172,179.486 154.53,191.897C164.249,203.542 175.886,209.251 188.167,217.228C193.09,220.425 203.498,236.685 190.914,233.068C189.58,241.248 197.251,251.36 186.233,253.817C182.716,254.6 173.533,255.075 169.985,254.497C160.253,252.913 159.073,241.556 152.633,235.447C136.063,219.737 129.993,200.487 124.613,178.567L124.62,178.57Z" style="fill:rgb(40,144,58);fill-rule:nonzero;"/>
        </g>
        <g transform="matrix(1,0,0,1,-0.00024,0.00024)">
            <path d="M100.88,156.62C99.216,142.596 95.622,119.878 110.194,111.412C116.537,107.726 122.427,115.098 121.882,121.241C121.015,131.009 113.196,132.801 116.007,143.205C118.963,154.145 121.673,165.305 126.427,175.654C137.788,200.387 156.813,220.428 180.521,233.512C186.018,236.546 191.943,237.301 197.054,240.817C201.148,243.633 208.925,246.537 210.797,251.524C211.902,254.463 208.662,265.602 206.86,268.131C203.079,273.436 200.655,269.123 196.133,269.059C189.937,268.982 189.107,276.047 184.841,278.041C178.154,281.164 167.129,272.187 163.259,267.441C153.353,255.293 141.367,244.125 132.271,231.17C116.241,208.339 104.226,185.063 100.915,156.916C100.925,156.816 100.915,156.716 100.895,156.616L100.88,156.62Z" style="fill:url(#_Linear71);fill-rule:nonzero;"/>
        </g>
        <g transform="matrix(1,0,0,1,-0.00024,0.00024)">
            <path d="M105.5,156.43C111.675,174.027 117.623,190.015 127.772,205.73C136.267,218.881 146.21,231.29 157.92,241.726C163.831,246.995 170.222,251.774 177.155,255.622C180.811,257.649 185.441,258.608 188.878,260.854C193.024,263.563 191.804,264.161 192.354,269.079C192.829,273.315 195.135,277.784 196.646,281.739C199.872,290.186 209.37,310.184 199.749,317.507C191.048,324.13 177.22,314.702 169.043,311.03C156.792,305.53 147.517,296.487 138.092,286.966C117.755,266.421 109.607,234.678 102.904,207.646C101.875,203.498 101.277,199.095 99.142,195.366C98.066,193.488 95.334,192.431 93.931,189.705C89.928,181.933 90.678,173.33 88.338,165.284C85.821,156.628 84.316,148 82.97,139.091C82.188,133.913 78.608,120.317 84.269,117.069C88.695,114.529 97.723,118.376 99.477,122.851C100.771,126.152 98.953,130.733 99.145,134.267C99.534,141.337 103.154,149.717 105.504,156.417L105.5,156.43Z" style="fill:url(#_Linear72);fill-rule:nonzero;"/>
        </g>
        <g transform="matrix(1,0,0,1,-0.00024,0.00024)">
            <path d="M149.83,125.18C140.353,127.063 130.954,138.377 144.126,142.934C151.428,145.459 161.55,138.217 159.118,129.189C156.858,120.789 155.128,124.129 149.828,125.189L149.83,125.18Z" style="fill:rgb(108,157,49);fill-rule:nonzero;"/>
        </g>
        <g transform="matrix(1,0,0,1,-0.00024,0.00024)">
            <path d="M100.92,174.61C98.841,168.343 90.056,141.543 80.317,151.253C71.817,159.73 76.333,177.83 78.859,187.498C81.553,197.813 86.043,206.897 89.888,216.761C91.854,221.804 94.928,230.385 91.888,235.448C88.843,240.517 81.985,239.438 80.935,246.642C79.335,257.621 88.044,254.576 94.309,256.552C111.131,261.859 101.957,284.374 102.995,296.652C103.699,304.965 110.869,312.961 115.455,319.679C121.13,327.996 130.981,327.709 138.363,333.71C141.494,336.255 142.696,340.988 146.026,343.556C149.78,346.45 157.459,347.745 162.201,347.406C172.057,346.695 204.482,338.388 191.757,323.17C183.256,313.002 179.703,300.941 177.137,288.223C175.957,282.383 176.386,276.819 172.554,271.889C168.602,266.805 162.115,264.715 157.396,260.399C145.314,249.348 135.807,235.833 126.475,222.48C119.413,212.375 110.89,203.24 106.413,191.644C104.273,186.134 102.783,180.264 100.913,174.614L100.92,174.61Z" style="fill:rgb(140,198,63);fill-rule:nonzero;"/>
        </g>
        <g transform="matrix(1,0,0,1,-0.00024,0.00024)">
            <path d="M242.45,307.98C254.557,299.406 243.258,273.562 232.595,290.501C229.235,295.831 234.125,313.871 242.445,307.981L242.45,307.98Z" style="fill:rgb(140,198,63);fill-rule:nonzero;"/>
        </g>
        <g transform="matrix(1,0,0,1,-0.00024,0.00024)">
            <path d="M111.37,280.61C99.228,275.153 99.193,291.385 104.419,297.409C110.379,304.278 116.92,302.681 116.482,292.993C116.292,288.723 116.452,282.893 111.372,280.613L111.37,280.61Z" style="fill:rgb(0,110,58);fill-rule:nonzero;"/>
        </g>
        <g transform="matrix(1,0,0,1,-0.00024,0.00024)">
            <path d="M110.79,313.64C119.054,306.322 104.54,287.872 97.409,295.908C95.438,298.129 96.295,302.773 96.9,305.301C98.396,311.541 104.14,319.531 110.79,313.641L110.79,313.64Z" style="fill:rgb(108,157,49);fill-rule:nonzero;"/>
        </g>
        <g transform="matrix(1,0,0,1,-0.00024,0.00024)">
            <path d="M101.8,261.83C110.699,250.09 84.338,242.813 88.943,259.31C90.719,265.681 97.877,266.991 101.8,261.83L101.8,261.83Z" style="fill:rgb(108,157,49);fill-rule:nonzero;"/>
        </g>
        <g transform="matrix(1,0,0,1,-0.00024,0.00024)">
            <path d="M83.05,313.6C83.06,313.594 366.16,154.25 368.27,153.07C360.637,157.374 367.436,182.745 368.481,189.31C370.795,203.869 375.928,216.799 387.438,226.647C388.362,225.724 389.924,225.066 390.674,224.402C393.895,230.704 400.723,235.111 407.01,237.175C414.395,239.599 427.828,244.671 435.049,242.451C435.758,309.831 434.942,377.311 434.942,444.711L434.942,453.664C434.942,456.615 411.706,458.353 409.503,458.5C405.241,458.779 401.106,457.928 396.98,458.271C392.216,458.668 387.64,461.174 382.828,461.719C364.478,463.787 345.615,463.717 327.279,461.728C307.595,459.594 287.691,456.863 268.275,452.969C261.048,451.519 253.879,449.092 246.593,448.035C242.762,447.478 238.506,448.015 236.792,443.494C234.304,436.937 242.319,428.424 245.85,423.697C254.545,412.062 254.11,394.443 236.214,392.506C221.122,390.871 221.455,405.082 219.191,415.793C217.771,422.506 211.652,432.537 204.165,433.5C194.516,434.74 181.251,423.721 173.712,418.754C161.075,410.426 147.186,401.373 135.697,391.555C126.537,383.727 116.081,375.784 108.375,366.606C104.009,361.405 102.592,354.51 99.743,348.501C98.506,345.941 81.088,314.671 83.025,313.581L83.05,313.6Z" style="fill:rgb(0,173,239);fill-opacity:0.19;fill-rule:nonzero;"/>
        </g>
        <g transform="matrix(1,0,0,1,-0.00024,0.00024)">
            <path d="M212.63,98.564C214.235,102.126 223.103,93.222 211.467,91.822C209.171,91.546 196.361,93.141 200.534,97.411C202.904,99.84 209.454,98.377 212.624,98.564L212.63,98.564Z" style="fill:rgb(247,147,29);fill-rule:nonzero;"/>
        </g>
        <g transform="matrix(1,0,0,1,-0.00024,0.00024)">
            <path d="M256.4,181.12C257.774,179.13 256.361,176.016 251.716,173.637C244.465,169.923 235.937,170.978 228.478,168.033C222.341,165.61 218.428,159.986 214.999,154.637C213.279,151.955 212.267,151.294 211.759,147.974C211.336,145.222 213.576,141.965 211.591,139.402C208.377,135.262 201.342,140.74 200.806,144.567C200.095,149.648 207.277,156.509 209.012,161.5C213.886,175.512 225.597,174.805 237.928,178.546C241.614,179.664 244.987,182.385 248.791,182.916C252.771,183.466 255.371,182.606 256.401,181.116L256.4,181.12Z" style="fill:rgb(247,147,29);fill-rule:nonzero;"/>
        </g>
        <g transform="matrix(1,0,0,1,-0.00024,0.00024)">
            <path d="M201.67,63.133C196.114,67.52 183.763,72.335 181.195,79.11C178.552,86.087 186.95,85.46 191.227,83.98C198.528,81.453 200.644,73.874 206.003,68.609C210.569,64.123 216.067,60.233 221.795,57.378C225.297,55.632 229.535,55.151 231.403,51.531C220.373,50.43 210.513,56.15 201.663,63.132L201.67,63.133Z" style="fill:rgb(247,147,29);fill-rule:nonzero;"/>
        </g>
        <g transform="matrix(1,0,0,1,-0.00024,0.00024)">
            <path d="M194.04,126.11C202.73,125.044 197.062,118.557 191.341,120.141C184.521,122.031 188.851,126.751 194.041,126.111L194.04,126.11Z" style="fill:rgb(247,147,29);fill-rule:nonzero;"/>
        </g>
        <g transform="matrix(1,0,0,1,-0.00024,0.00024)">
            <path d="M102.12,185.03C100.306,180.185 98.529,175.326 96.79,170.454C95.171,165.92 92.544,162.015 91.101,157.382C90.51,155.484 90.475,153.469 88.756,152.157C81.897,146.928 80.444,157.611 81.348,162.086C82.559,168.085 85.248,173.929 87.805,179.449C91.986,188.48 97.144,196.928 101.753,205.724C104.961,211.85 113.995,222.367 113.991,229.006C110.498,228.854 105.554,229.665 105.454,233.799C105.25,242.193 120.581,241.551 123.42,247.766C125.512,252.346 119.888,253.817 120.884,258.727C121.482,261.678 127.464,267.317 130.53,267.522C137.497,267.989 132.06,263.288 134.935,258.618C135.206,258.178 146.657,268.026 147.936,268.954C153.516,272.997 161.054,274.577 164.385,280.993C167.328,286.663 167.076,293.616 168.224,299.759C170.308,310.904 173.709,324.111 182.955,331.587C186.185,334.196 190.596,335.931 192.85,331.085C195.031,326.393 190.246,324.714 187.342,321.825C178.496,313.022 175.361,297.702 173.719,285.772C172.514,277.01 172.819,273.555 165.236,268.577C162.214,266.593 158.676,264.151 155.816,261.778C147.804,255.132 140.622,247.534 134.498,239.112C128.372,230.689 124.934,219.931 117.48,212.519C110.19,205.259 105.76,194.719 102.13,185.029L102.12,185.03Z" style="fill:url(#_Linear73);fill-rule:nonzero;"/>
        </g>
        <g transform="matrix(1,0,0,1,-0.00024,0.00024)">
            <path d="M113.07,241.41C108.844,241.244 103.481,236.128 105.748,231.73C106.396,230.473 113.529,227.441 113.726,228.823C113.896,230.053 112.296,241.383 113.066,241.413L113.07,241.41Z" style="fill:url(#_Radial74);fill-rule:nonzero;"/>
        </g>
        <g transform="matrix(1,0,0,1,-0.00024,0.00024)">
            <path d="M123.43,248.72C125.006,250.56 120.846,254.693 120.522,256.49C119.915,259.859 126.372,267.312 129.689,268.115C134.749,269.343 134.628,263.222 134.507,259.859C133.041,262.677 129.652,268.308 125.874,265.419C120.844,261.589 127.084,252.999 123.424,248.719L123.43,248.72Z" style="fill:url(#_Radial75);fill-rule:nonzero;"/>
        </g>
        <g transform="matrix(1,0,0,1,-0.00024,0.00024)">
            <path d="M171.02,307.13C171.783,309.566 172.612,311.982 173.468,314.382C175.56,320.247 176.615,325.259 181.595,329.486C184.555,331.996 190.591,335.226 192.728,330.006C194.517,325.634 189.817,323.576 187.368,320.746C180.877,313.244 178.317,303.81 175.837,294.435C174.663,289.999 173.521,285.734 172.941,281.304C172.537,278.218 172.889,273.487 169.504,271.79C167.978,271.026 165.355,270.8 163.717,271.224C162.226,271.61 157.981,274.036 159.705,275.845C162.229,278.491 163.867,276.394 165.637,280.989C167.613,286.114 167.281,291.766 168.392,297.159C169.102,300.539 170.002,303.859 171.032,307.139L171.02,307.13Z" style="fill:url(#_Linear76);fill-rule:nonzero;"/>
        </g>
        <g transform="matrix(1,0,0,1,-0.00024,0.00024)">
            <path d="M96.362,151.82C101.012,162.524 105.456,173.303 109.366,184.238C111.097,189.081 113.55,193.396 116.238,197.729C119.289,202.651 121.045,208.039 124.505,212.643C128.344,217.751 131.302,223.508 135.325,228.529C138.758,232.813 142.986,236.534 146.564,240.74C153.45,248.838 161.639,255.977 171.011,261.061C178.009,264.856 182.779,265.821 185.365,273.684C186.475,277.055 190.036,304.414 196.509,300.184C201.813,296.719 193.216,279.096 192.353,274.559C191.905,272.207 192.535,266.59 191.302,264.662C189.712,262.18 184.987,261.643 182.451,260.485C178.227,258.553 174.327,255.871 170.311,253.557C154.988,244.733 143.953,231.564 133.582,217.397C130.52,213.215 127.301,208.904 124.491,204.498C115.363,190.189 109.948,174.021 104.247,158.173C101.901,151.649 99.311,145.744 98.241,138.858C97.486,134.004 98.649,127.672 95.777,123.373C93.688,120.245 87.828,116.165 85.831,121.548C82.822,129.654 90.821,139.648 94.044,146.64C94.835,148.38 95.607,150.1 96.359,151.83L96.362,151.82Z" style="fill:url(#_Linear77);fill-rule:nonzero;"/>
        </g>
        <g transform="matrix(1,0,0,1,-0.00024,0.00024)">
            <path d="M109.42,151.14C108.884,149.573 108.358,147.992 107.839,146.395C104.799,137.021 100.846,123.38 108.58,115.126C112.197,111.269 118.45,112.104 120.205,117.653C121.863,122.895 116.436,126.388 114.982,130.992C113.932,134.315 113.698,137.861 113.843,141.359C114.304,152.541 117.555,160.355 121.862,170.502C126.565,181.585 132.117,190.483 139.1,200.255C142.156,204.532 145.393,208.009 149.235,211.497C153.224,215.119 156.203,219.714 160.256,223.279C167.822,229.936 176.901,234.455 185.866,238.895C191.701,241.785 206.222,246.275 208.234,252.995C208.881,255.159 208.104,263.899 204.905,263.757C201.621,263.609 201.753,256.025 202.274,253.972C197.645,248.535 187.795,246.816 181.524,243.745C175.614,240.853 170.151,236.877 164.46,233.617C145.704,222.873 131.049,201.446 121.9,181.935C117.08,171.695 113.03,161.735 109.41,151.145L109.42,151.14Z" style="fill:url(#_Linear78);fill-rule:nonzero;"/>
        </g>
        <g transform="matrix(1,0,0,1,-0.00024,0.00024)">
            <path d="M243.83,306.06C245.021,304.451 245.89,302.162 246.166,300.955C247.008,297.281 247.019,292.888 245.086,289.547C244.573,288.662 243.907,287.519 242.933,287.107C238.795,285.355 237.523,295.845 237.473,298.214C237.424,300.581 237.447,308.058 241.308,307.841C242.218,307.791 243.078,307.061 243.818,306.061L243.83,306.06Z" style="fill:url(#_Linear79);fill-rule:nonzero;"/>
        </g>
        <g transform="matrix(1,0,0,1,-0.00024,0.00024)">
            <path d="M308.41,86.863C305.323,101.762 305.72,122.424 317.514,133.757C319.369,135.539 327.383,126.75 327.383,126.75L332.197,131.565L322.388,139.424C322.388,139.424 339.447,155.509 358.945,163.308C358.945,163.308 348.465,216.194 376.006,243.735C380.876,248.602 389.315,250.83 395.887,251.828C399.575,252.389 403.924,252.85 407.563,251.731C411.13,250.633 413.696,246.813 417.427,246.537C419.1,246.416 421.602,247.32 423.175,247.791C413.759,263.723 382.585,259.072 371.448,248.039C354.53,231.28 351.475,202.736 350.173,180.368C350.173,180.368 350.444,172.353 352.122,165.258C352.122,165.258 332.626,157.459 318.003,142.837C311.567,136.402 306.821,128.359 304.061,119.703C302.279,114.118 303.214,99.853 297.054,97.52C291.441,95.394 291.735,99.415 291.681,104.212C291.547,116.141 294.589,128.832 302.54,137.842C305.223,140.882 322.858,154.162 320.329,157.838C316.203,163.837 301.914,146.447 299.481,143.812C297.233,141.379 292.169,132.765 288.149,138.329C286.414,140.73 288.244,143.789 289.611,146.25C296.534,158.711 312.51,172.537 325.787,177.809C326.963,178.276 329.848,178.556 330.7,179.47C335.895,185.056 333.489,198.742 335.024,205.818C338.383,221.289 341.688,235.208 351.68,248.038C356.275,253.938 361.7,259.306 367.967,263.421C372.437,266.352 376.871,270.958 382.069,272.421C392.165,275.259 403.37,270.667 412.446,266.52C421.336,262.456 420.555,269.399 413.307,272.913C407.34,275.802 401.182,278.147 394.516,278.719C375.196,280.385 357.877,265.948 346.414,252.041C334.738,237.874 330.437,218.49 327.25,200.83C326.451,196.42 326.777,187.51 324.227,183.755C322.424,181.099 318.795,180.624 316.052,179.285C312.975,177.785 304.313,170.421 300.944,171.657C297.196,173.047 298.63,177.794 300.076,179.906C303.743,185.264 312.447,186.534 315.491,191.678C315.818,192.231 315.573,196.061 315.591,196.896C315.831,207.9 318.083,220.697 321.294,231.195C323.71,239.09 327.372,246.096 332.626,252.518C336.721,257.526 345.056,261.885 345.808,268.766C343.106,268.874 341.001,266.348 338.464,266.282C334.11,266.167 331.993,275.053 333.204,278.309C335.106,283.424 340.917,282.371 345.138,283.217C351.013,284.393 350.72,287.557 344.8,289.184C341.114,290.195 336.261,289.524 332.638,288.483C323.824,285.946 315.411,280.117 309.826,272.977C305.185,267.049 291.779,245.965 298.02,238.374C302.736,232.636 308.974,254.18 310.326,257.991C312.67,264.596 316.653,279.403 326.668,274.821C342.311,267.664 320.818,244.313 317.613,235.349C312.766,221.791 314.239,201.006 302.893,191.092C293.375,182.776 281.263,179.006 273.241,168.547C270.68,165.205 258.776,141.549 268.146,144.106C272.92,145.41 275.633,155.517 277.342,159.341C279.862,164.982 282.932,169.874 289.219,171.705C296.963,173.96 298.633,168.908 294.831,162.83C291.133,156.916 284.849,153.009 281.294,146.984C276.346,138.588 272.945,129.185 272.187,119.428C271.957,116.47 272.416,106.232 277.058,107.612C279.815,108.431 279.579,116.469 280.093,119.089C280.707,122.221 281.832,132.425 285.348,133.099C292.143,134.402 287.151,118.007 286.78,115.066C285.515,105.07 286.665,94.678 290.207,85.238C291.244,82.474 294.646,74.514 288.259,75.073C285.963,75.275 284.493,78.628 283.521,80.44C281.826,83.598 282.164,89.584 279.319,91.969C272.265,97.881 275.867,84.471 276.364,81.52C269.237,76.48 264.39,87.587 261.973,93.083C256.232,106.146 258.183,120.555 260.974,134.073C261.71,137.638 261.761,142.241 257.441,138.476C254.766,136.143 253.902,128.57 253.176,125.31C252.194,120.889 253.166,116.011 249.06,113.772C242.235,110.051 240.672,116.73 237.701,120.112C234.904,123.295 230.287,123.928 228.413,118.947C224.875,109.549 240.268,110.916 245.202,108.616C251.026,105.902 251.282,100.981 253.086,95.624C255.05,89.786 257.538,83.07 260.692,77.746C263.84,72.433 267.274,65.698 272.039,61.163C273.148,60.108 281.97,62.427 281.349,63.192C278.675,66.488 272.415,72.404 273.723,74.01C276.989,78.025 284.305,69.899 289.493,65.253L295.681,66.372C294.122,67.81 292.734,69.387 291.637,71.179C290.725,72.667 297.62,71.888 298.557,71.322C300.431,70.189 301.363,69.324 302.352,68.811C303.341,68.298 320.211,73.797 320.125,74.085C319.629,75.736 319.049,77.359 317.988,78.566C314.57,74.919 308.262,70.03 303.632,73.09C300.26,75.317 293.802,87.189 295.059,91.156C298.919,103.322 303.443,82.371 305.453,80.935C309.291,78.192 309.7,81.3 308.864,84.83C308.714,85.498 308.564,86.176 308.424,86.867L308.41,86.863Z" style="fill:rgb(247,147,29);fill-rule:nonzero;"/>
        </g>
        <g transform="matrix(1,0,0,1,-0.00024,0.00024)">
            <path d="M110.77,306.66C109.208,307.297 105.641,307.512 104.65,309.029C102.09,312.949 111.12,313.049 110.77,306.659L110.77,306.66Z" style="fill:url(#_Linear80);fill-rule:nonzero;"/>
        </g>
        <g transform="matrix(1,0,0,1,-0.00024,0.00024)">
            <path d="M223.44,366.69C230.767,362.354 233.037,350.971 228.603,343.807C224.372,336.973 215.143,339.034 211.061,345.09C205.071,353.96 210.201,374.53 223.441,366.69L223.44,366.69Z" style="fill:rgb(247,147,29);fill-rule:nonzero;"/>
        </g>
        <g transform="matrix(1,0,0,1,-0.00024,0.00024)">
            <path d="M225.74,431.58C221.85,430.121 215.686,432.756 214.228,428.691C213.165,425.73 216.596,420.931 216.51,417.734C216.345,411.658 214.19,407.269 217.643,401.539C220.548,396.719 226.134,392.498 231.837,391.91C241.701,390.893 249.271,396.596 251.785,406.015C254.929,417.796 242.332,416.785 236.236,423.226C232.611,427.057 231.275,431.445 234.991,435.824C234.786,435.58 227.492,432.326 226.455,431.869C226.225,431.769 225.985,431.669 225.745,431.579L225.74,431.58Z" style="fill:rgb(0,72,33);fill-rule:nonzero;"/>
        </g>
        <g transform="matrix(1,0,0,1,-0.00024,0.00024)">
            <path d="M224.44,434.7C230.496,437.046 233.673,442.151 238.869,445.616C233.019,433.198 245.434,428.077 250.628,419.591C255.74,411.234 249.701,396.017 238.515,398.695C231.204,400.443 229.493,408.195 226.324,413.951C225.165,416.057 212.676,433.851 211.473,432.482C214.113,435.492 220.703,433.242 224.433,434.692L224.44,434.7Z" style="fill:rgb(108,157,49);fill-rule:nonzero;"/>
        </g>
        <g transform="matrix(1,0,0,1,-0.00024,0.00024)">
            <path d="M436.32,464.88C424.482,467.581 412.181,468.802 400.105,469.763C371.605,472.034 342.843,471.319 314.465,467.886C295.996,465.65 277.669,462.232 259.648,457.605C250.799,455.333 236.541,452.855 233.261,443.162C229.34,431.568 237.152,429.939 244.397,423.463C251.619,417.006 250.342,397.58 237.222,402.006C230.069,404.416 228.695,410.891 227.813,417.26C226.278,428.34 222.326,438.996 209.534,437.018C193.846,434.594 181.806,429.19 167.899,421.245C151.794,412.04 136.5,401.366 122.569,389.106C106.983,375.387 92.946,359.643 82.035,341.932C81.376,340.863 70.432,322.202 71.65,321.463C71.653,321.463 83.047,314.574 83.05,314.574C81.521,315.498 90.98,333.256 91.607,334.377C103.009,354.824 119.163,372.682 138.007,386.543C148.889,394.547 159.712,402.824 170.418,411.033C179.325,417.859 190.381,427.562 202.099,428.431C210.315,429.04 217.328,425.402 219.881,417.706C222.187,410.749 222.347,404.151 227.96,398.64C233.137,393.56 240.504,391.775 246.845,395.908C256.959,402.503 256.639,418.517 249.296,426.996C246.858,429.812 241.114,431.482 239.647,434.904C236.658,441.875 246.999,441.769 250.868,442.138C258.512,442.869 265.996,446.033 273.486,447.748C291.069,451.769 308.858,454.925 326.777,457.009C356.584,460.472 386.82,460.98 416.642,457.388C422.765,456.648 428.871,455.738 434.939,454.644L436.339,464.884L436.32,464.88Z" style="fill:rgb(202,219,42);fill-rule:nonzero;"/>
        </g>
        <g transform="matrix(1,0,0,1,-0.00024,0.00024)">
            <path d="M82.714,316.73C59.164,296.501 47.066,264.505 40.975,234.821C33.819,199.945 28.637,162.346 35.372,126.891C38.339,111.269 41.434,94.813 47.158,79.931C52.866,65.089 64.659,54.312 74.06,41.873C79.294,34.948 86.736,23.952 94.739,19.941C99.413,17.6 98.28,18.122 104.114,18.513C122.182,19.727 320.434,72.879 320.124,74.087C318.624,79.863 316.593,86.818 316.903,96.386C317.307,108.801 321.456,121.377 330.194,130.439C340.958,141.601 355.833,144.584 368.766,151.934" style="fill:rgb(153,219,249);fill-opacity:0.16;fill-rule:nonzero;"/>
        </g>
        <g transform="matrix(1,0,0,1,-0.00024,0.00024)">
            <path d="M82.163,314.57C82.163,314.57 17.287,233.686 32.942,132.6C46.995,41.856 104.11,18.51 104.11,18.51L93.548,15.906C93.548,15.906 36.837,39.013 20.264,131.627C20.264,131.627 0.767,221.371 71.931,320.287L82.163,314.566L82.163,314.57Z" style="fill:rgb(108,157,49);fill-rule:nonzero;"/>
        </g>
    </g>
    <defs>
        <radialGradient id="_Radial1" cx="0" cy="0" r="1" gradientUnits="userSpaceOnUse" gradientTransform="matrix(2.1938,0,0,-2.1938,259.425,167.37)"><stop offset="0" style="stop-color:white;stop-opacity:1"/><stop offset="1" style="stop-color:rgb(192,39,45);stop-opacity:1"/></radialGradient>
        <radialGradient id="_Radial2" cx="0" cy="0" r="1" gradientUnits="userSpaceOnUse" gradientTransform="matrix(2.1934,0,0,-2.1934,350.655,266.16)"><stop offset="0" style="stop-color:white;stop-opacity:1"/><stop offset="1" style="stop-color:rgb(192,39,45);stop-opacity:1"/></radialGradient>
        <radialGradient id="_Radial3" cx="0" cy="0" r="1" gradientUnits="userSpaceOnUse" gradientTransform="matrix(2.1934,0,0,-2.1934,246.295,124.5)"><stop offset="0" style="stop-color:white;stop-opacity:1"/><stop offset="1" style="stop-color:rgb(192,39,45);stop-opacity:1"/></radialGradient>
        <radialGradient id="_Radial4" cx="0" cy="0" r="1" gradientUnits="userSpaceOnUse" gradientTransform="matrix(2.1934,0,0,-2.1934,252.795,86.1)"><stop offset="0" style="stop-color:white;stop-opacity:1"/><stop offset="1" style="stop-color:rgb(192,39,45);stop-opacity:1"/></radialGradient>
        <radialGradient id="_Radial5" cx="0" cy="0" r="1" gradientUnits="userSpaceOnUse" gradientTransform="matrix(2.1934,0,0,-2.1934,261.585,70.17)"><stop offset="0" style="stop-color:white;stop-opacity:1"/><stop offset="1" style="stop-color:rgb(192,39,45);stop-opacity:1"/></radialGradient>
        <radialGradient id="_Radial6" cx="0" cy="0" r="1" gradientUnits="userSpaceOnUse" gradientTransform="matrix(2.1934,0,0,-2.1934,252.875,141.04)"><stop offset="0" style="stop-color:white;stop-opacity:1"/><stop offset="1" style="stop-color:rgb(192,39,45);stop-opacity:1"/></radialGradient>
        <radialGradient id="_Radial7" cx="0" cy="0" r="1" gradientUnits="userSpaceOnUse" gradientTransform="matrix(2.1934,0,0,-2.1934,250.605,97.59)"><stop offset="0" style="stop-color:white;stop-opacity:1"/><stop offset="1" style="stop-color:rgb(192,39,45);stop-opacity:1"/></radialGradient>
        <radialGradient id="_Radial8" cx="0" cy="0" r="1" gradientUnits="userSpaceOnUse" gradientTransform="matrix(2.1936,0,0,-2.1936,286.765,232.77)"><stop offset="0" style="stop-color:white;stop-opacity:1"/><stop offset="1" style="stop-color:rgb(192,39,45);stop-opacity:1"/></radialGradient>
        <radialGradient id="_Radial9" cx="0" cy="0" r="1" gradientUnits="userSpaceOnUse" gradientTransform="matrix(2.1934,0,0,-2.1934,318.445,267.96)"><stop offset="0" style="stop-color:white;stop-opacity:1"/><stop offset="1" style="stop-color:rgb(192,39,45);stop-opacity:1"/></radialGradient>
        <radialGradient id="_Radial10" cx="0" cy="0" r="1" gradientUnits="userSpaceOnUse" gradientTransform="matrix(2.1934,0,0,-2.1934,557.325,174.28)"><stop offset="0" style="stop-color:white;stop-opacity:1"/><stop offset="1" style="stop-color:rgb(192,39,45);stop-opacity:1"/></radialGradient>
        <radialGradient id="_Radial11" cx="0" cy="0" r="1" gradientUnits="userSpaceOnUse" gradientTransform="matrix(2.1938,0,0,-2.1938,453.825,245.84)"><stop offset="0" style="stop-color:white;stop-opacity:1"/><stop offset="1" style="stop-color:rgb(192,39,45);stop-opacity:1"/></radialGradient>
        <radialGradient id="_Radial12" cx="0" cy="0" r="1" gradientUnits="userSpaceOnUse" gradientTransform="matrix(2.1934,0,0,-2.1934,483.395,237.08)"><stop offset="0" style="stop-color:white;stop-opacity:1"/><stop offset="1" style="stop-color:rgb(192,39,45);stop-opacity:1"/></radialGradient>
        <radialGradient id="_Radial13" cx="0" cy="0" r="1" gradientUnits="userSpaceOnUse" gradientTransform="matrix(2.1934,0,0,-2.1934,511.745,221.91)"><stop offset="0" style="stop-color:white;stop-opacity:1"/><stop offset="1" style="stop-color:rgb(192,39,45);stop-opacity:1"/></radialGradient>
        <radialGradient id="_Radial14" cx="0" cy="0" r="1" gradientUnits="userSpaceOnUse" gradientTransform="matrix(2.1934,0,0,-2.1934,365.765,179.88)"><stop offset="0" style="stop-color:white;stop-opacity:1"/><stop offset="1" style="stop-color:rgb(192,39,45);stop-opacity:1"/></radialGradient>
        <radialGradient id="_Radial15" cx="0" cy="0" r="1" gradientUnits="userSpaceOnUse" gradientTransform="matrix(2.1934,0,0,-2.1934,361.865,220.34)"><stop offset="0" style="stop-color:white;stop-opacity:1"/><stop offset="1" style="stop-color:rgb(192,39,45);stop-opacity:1"/></radialGradient>
        <radialGradient id="_Radial16" cx="0" cy="0" r="1" gradientUnits="userSpaceOnUse" gradientTransform="matrix(2.1938,0,0,-2.1938,390.135,211.08)"><stop offset="0" style="stop-color:white;stop-opacity:1"/><stop offset="1" style="stop-color:rgb(192,39,45);stop-opacity:1"/></radialGradient>
        <radialGradient id="_Radial17" cx="0" cy="0" r="1" gradientUnits="userSpaceOnUse" gradientTransform="matrix(2.1941,0,0,-2.1941,411.345,235.55)"><stop offset="0" style="stop-color:white;stop-opacity:1"/><stop offset="1" style="stop-color:rgb(192,39,45);stop-opacity:1"/></radialGradient>
        <radialGradient id="_Radial18" cx="0" cy="0" r="1" gradientUnits="userSpaceOnUse" gradientTransform="matrix(2.1934,0,0,-2.1934,485.185,214.49)"><stop offset="0" style="stop-color:white;stop-opacity:1"/><stop offset="1" style="stop-color:rgb(192,39,45);stop-opacity:1"/></radialGradient>
        <radialGradient id="_Radial19" cx="0" cy="0" r="1" gradientUnits="userSpaceOnUse" gradientTransform="matrix(2.1934,0,0,-2.1934,443.515,191.58)"><stop offset="0" style="stop-color:white;stop-opacity:1"/><stop offset="1" style="stop-color:rgb(192,39,45);stop-opacity:1"/></radialGradient>
        <radialGradient id="_Radial20" cx="0" cy="0" r="1" gradientUnits="userSpaceOnUse" gradientTransform="matrix(2.1934,0,0,-2.1934,502.245,184.27)"><stop offset="0" style="stop-color:white;stop-opacity:1"/><stop offset="1" style="stop-color:rgb(192,39,45);stop-opacity:1"/></radialGradient>
        <radialGradient id="_Radial21" cx="0" cy="0" r="1" gradientUnits="userSpaceOnUse" gradientTransform="matrix(2.1934,0,0,-2.1934,434.495,206.69)"><stop offset="0" style="stop-color:white;stop-opacity:1"/><stop offset="1" style="stop-color:rgb(192,39,45);stop-opacity:1"/></radialGradient>
        <radialGradient id="_Radial22" cx="0" cy="0" r="1" gradientUnits="userSpaceOnUse" gradientTransform="matrix(2.1934,0,0,-2.1934,445.705,238.37)"><stop offset="0" style="stop-color:white;stop-opacity:1"/><stop offset="1" style="stop-color:rgb(192,39,45);stop-opacity:1"/></radialGradient>
        <radialGradient id="_Radial23" cx="0" cy="0" r="1" gradientUnits="userSpaceOnUse" gradientTransform="matrix(2.1934,0,0,-2.1934,502.245,194.5)"><stop offset="0" style="stop-color:white;stop-opacity:1"/><stop offset="1" style="stop-color:rgb(192,39,45);stop-opacity:1"/></radialGradient>
        <radialGradient id="_Radial24" cx="0" cy="0" r="1" gradientUnits="userSpaceOnUse" gradientTransform="matrix(2.1934,0,0,-2.1934,426.695,220.34)"><stop offset="0" style="stop-color:white;stop-opacity:1"/><stop offset="1" style="stop-color:rgb(192,39,45);stop-opacity:1"/></radialGradient>
        <radialGradient id="_Radial25" cx="0" cy="0" r="1" gradientUnits="userSpaceOnUse" gradientTransform="matrix(2.1934,0,0,-2.1934,369.915,201.33)"><stop offset="0" style="stop-color:white;stop-opacity:1"/><stop offset="1" style="stop-color:rgb(192,39,45);stop-opacity:1"/></radialGradient>
        <radialGradient id="_Radial26" cx="0" cy="0" r="1" gradientUnits="userSpaceOnUse" gradientTransform="matrix(2.1934,0,0,-2.1934,480.805,178.42)"><stop offset="0" style="stop-color:white;stop-opacity:1"/><stop offset="1" style="stop-color:rgb(192,39,45);stop-opacity:1"/></radialGradient>
        <radialGradient id="_Radial27" cx="0" cy="0" r="1" gradientUnits="userSpaceOnUse" gradientTransform="matrix(2.1934,0,0,-2.1934,418.895,182.81)"><stop offset="0" style="stop-color:white;stop-opacity:1"/><stop offset="1" style="stop-color:rgb(192,39,45);stop-opacity:1"/></radialGradient>
        <radialGradient id="_Radial28" cx="0" cy="0" r="1" gradientUnits="userSpaceOnUse" gradientTransform="matrix(2.1934,0,0,-2.1934,404.035,218.39)"><stop offset="0" style="stop-color:white;stop-opacity:1"/><stop offset="1" style="stop-color:rgb(192,39,45);stop-opacity:1"/></radialGradient>
        <radialGradient id="_Radial29" cx="0" cy="0" r="1" gradientUnits="userSpaceOnUse" gradientTransform="matrix(2.1934,0,0,-2.1934,396.965,175.98)"><stop offset="0" style="stop-color:white;stop-opacity:1"/><stop offset="1" style="stop-color:rgb(192,39,45);stop-opacity:1"/></radialGradient>
        <radialGradient id="_Radial30" cx="0" cy="0" r="1" gradientUnits="userSpaceOnUse" gradientTransform="matrix(2.1934,0,0,-2.1934,280.955,95.56)"><stop offset="0" style="stop-color:white;stop-opacity:1"/><stop offset="1" style="stop-color:rgb(192,39,45);stop-opacity:1"/></radialGradient>
        <radialGradient id="_Radial31" cx="0" cy="0" r="1" gradientUnits="userSpaceOnUse" gradientTransform="matrix(2.1934,0,0,-2.1934,529.665,169.28)"><stop offset="0" style="stop-color:white;stop-opacity:1"/><stop offset="1" style="stop-color:rgb(192,39,45);stop-opacity:1"/></radialGradient>
        <radialGradient id="_Radial32" cx="0" cy="0" r="1" gradientUnits="userSpaceOnUse" gradientTransform="matrix(2.1934,0,0,-2.1934,552.945,159.65)"><stop offset="0" style="stop-color:white;stop-opacity:1"/><stop offset="1" style="stop-color:rgb(192,39,45);stop-opacity:1"/></radialGradient>
        <radialGradient id="_Radial33" cx="0" cy="0" r="1" gradientUnits="userSpaceOnUse" gradientTransform="matrix(2.1934,0,0,-2.1934,542.695,189.73)"><stop offset="0" style="stop-color:white;stop-opacity:1"/><stop offset="1" style="stop-color:rgb(192,39,45);stop-opacity:1"/></radialGradient>
        <radialGradient id="_Radial34" cx="0" cy="0" r="1" gradientUnits="userSpaceOnUse" gradientTransform="matrix(2.1934,0,0,-2.1934,454.485,215.46)"><stop offset="0" style="stop-color:white;stop-opacity:1"/><stop offset="1" style="stop-color:rgb(192,39,45);stop-opacity:1"/></radialGradient>
        <radialGradient id="_Radial35" cx="0" cy="0" r="1" gradientUnits="userSpaceOnUse" gradientTransform="matrix(2.1934,0,0,-2.1934,374.265,231.87)"><stop offset="0" style="stop-color:white;stop-opacity:1"/><stop offset="1" style="stop-color:rgb(192,39,45);stop-opacity:1"/></radialGradient>
        <radialGradient id="_Radial36" cx="0" cy="0" r="1" gradientUnits="userSpaceOnUse" gradientTransform="matrix(2.1938,0,0,-2.1938,525.155,198.89)"><stop offset="0" style="stop-color:white;stop-opacity:1"/><stop offset="1" style="stop-color:rgb(192,39,45);stop-opacity:1"/></radialGradient>
        <radialGradient id="_Radial37" cx="0" cy="0" r="1" gradientUnits="userSpaceOnUse" gradientTransform="matrix(2.1934,0,0,-2.1934,492.495,224.73)"><stop offset="0" style="stop-color:white;stop-opacity:1"/><stop offset="1" style="stop-color:rgb(192,39,45);stop-opacity:1"/></radialGradient>
        <radialGradient id="_Radial38" cx="0" cy="0" r="1" gradientUnits="userSpaceOnUse" gradientTransform="matrix(2.1934,0,0,-2.1934,475.435,202.79)"><stop offset="0" style="stop-color:white;stop-opacity:1"/><stop offset="1" style="stop-color:rgb(192,39,45);stop-opacity:1"/></radialGradient>
        <radialGradient id="_Radial39" cx="0" cy="0" r="1" gradientUnits="userSpaceOnUse" gradientTransform="matrix(26.126,0,0,-26.126,410.615,79.96)"><stop offset="0" style="stop-color:white;stop-opacity:1"/><stop offset="1" style="stop-color:rgb(255,194,14);stop-opacity:1"/></radialGradient>
        <radialGradient id="_Radial40" cx="0" cy="0" r="1" gradientUnits="userSpaceOnUse" gradientTransform="matrix(2.1934,0,0,-2.1934,276.975,203.76)"><stop offset="0" style="stop-color:white;stop-opacity:1"/><stop offset="1" style="stop-color:rgb(192,39,45);stop-opacity:1"/></radialGradient>
        <radialGradient id="_Radial41" cx="0" cy="0" r="1" gradientUnits="userSpaceOnUse" gradientTransform="matrix(2.1938,0,0,-2.1938,361.135,251.51)"><stop offset="0" style="stop-color:white;stop-opacity:1"/><stop offset="1" style="stop-color:rgb(192,39,45);stop-opacity:1"/></radialGradient>
        <radialGradient id="_Radial42" cx="0" cy="0" r="1" gradientUnits="userSpaceOnUse" gradientTransform="matrix(2.1934,0,0,-2.1934,331.815,172.57)"><stop offset="0" style="stop-color:white;stop-opacity:1"/><stop offset="1" style="stop-color:rgb(192,39,45);stop-opacity:1"/></radialGradient>
        <radialGradient id="_Radial43" cx="0" cy="0" r="1" gradientUnits="userSpaceOnUse" gradientTransform="matrix(2.1934,0,0,-2.1934,311.015,164.12)"><stop offset="0" style="stop-color:white;stop-opacity:1"/><stop offset="1" style="stop-color:rgb(192,39,45);stop-opacity:1"/></radialGradient>
        <radialGradient id="_Radial44" cx="0" cy="0" r="1" gradientUnits="userSpaceOnUse" gradientTransform="matrix(2.1934,0,0,-2.1934,285.345,125.29)"><stop offset="0" style="stop-color:white;stop-opacity:1"/><stop offset="1" style="stop-color:rgb(192,39,45);stop-opacity:1"/></radialGradient>
        <radialGradient id="_Radial45" cx="0" cy="0" r="1" gradientUnits="userSpaceOnUse" gradientTransform="matrix(2.1934,0,0,-2.1934,390.505,246.78)"><stop offset="0" style="stop-color:white;stop-opacity:1"/><stop offset="1" style="stop-color:rgb(192,39,45);stop-opacity:1"/></radialGradient>
        <radialGradient id="_Radial46" cx="0" cy="0" r="1" gradientUnits="userSpaceOnUse" gradientTransform="matrix(2.1934,0,0,-2.1934,307.765,76.06)"><stop offset="0" style="stop-color:white;stop-opacity:1"/><stop offset="1" style="stop-color:rgb(192,39,45);stop-opacity:1"/></radialGradient>
        <radialGradient id="_Radial47" cx="0" cy="0" r="1" gradientUnits="userSpaceOnUse" gradientTransform="matrix(2.1936,0,0,-2.1936,267.605,96.35)"><stop offset="0" style="stop-color:white;stop-opacity:1"/><stop offset="1" style="stop-color:rgb(192,39,45);stop-opacity:1"/></radialGradient>
        <radialGradient id="_Radial48" cx="0" cy="0" r="1" gradientUnits="userSpaceOnUse" gradientTransform="matrix(2.1934,0,0,-2.1934,281.685,97.02)"><stop offset="0" style="stop-color:white;stop-opacity:1"/><stop offset="1" style="stop-color:rgb(192,39,45);stop-opacity:1"/></radialGradient>
        <radialGradient id="_Radial49" cx="0" cy="0" r="1" gradientUnits="userSpaceOnUse" gradientTransform="matrix(2.1938,0,0,-2.1938,277.425,155.15)"><stop offset="0" style="stop-color:white;stop-opacity:1"/><stop offset="1" style="stop-color:rgb(192,39,45);stop-opacity:1"/></radialGradient>
        <radialGradient id="_Radial50" cx="0" cy="0" r="1" gradientUnits="userSpaceOnUse" gradientTransform="matrix(2.1934,0,0,-2.1934,289.245,164.77)"><stop offset="0" style="stop-color:white;stop-opacity:1"/><stop offset="1" style="stop-color:rgb(192,39,45);stop-opacity:1"/></radialGradient>
        <radialGradient id="_Radial51" cx="0" cy="0" r="1" gradientUnits="userSpaceOnUse" gradientTransform="matrix(2.1934,0,0,-2.1934,288.265,208.4)"><stop offset="0" style="stop-color:white;stop-opacity:1"/><stop offset="1" style="stop-color:rgb(192,39,45);stop-opacity:1"/></radialGradient>
        <radialGradient id="_Radial52" cx="0" cy="0" r="1" gradientUnits="userSpaceOnUse" gradientTransform="matrix(2.1934,0,0,-2.1934,307.275,230.09)"><stop offset="0" style="stop-color:white;stop-opacity:1"/><stop offset="1" style="stop-color:rgb(192,39,45);stop-opacity:1"/></radialGradient>
        <radialGradient id="_Radial53" cx="0" cy="0" r="1" gradientUnits="userSpaceOnUse" gradientTransform="matrix(2.1934,0,0,-2.1934,376.005,262.74)"><stop offset="0" style="stop-color:white;stop-opacity:1"/><stop offset="1" style="stop-color:rgb(192,39,45);stop-opacity:1"/></radialGradient>
        <radialGradient id="_Radial54" cx="0" cy="0" r="1" gradientUnits="userSpaceOnUse" gradientTransform="matrix(2.1934,0,0,-2.1934,338.475,250.56)"><stop offset="0" style="stop-color:white;stop-opacity:1"/><stop offset="1" style="stop-color:rgb(192,39,45);stop-opacity:1"/></radialGradient>
        <radialGradient id="_Radial55" cx="0" cy="0" r="1" gradientUnits="userSpaceOnUse" gradientTransform="matrix(2.1934,0,0,-2.1934,386.725,268.35)"><stop offset="0" style="stop-color:white;stop-opacity:1"/><stop offset="1" style="stop-color:rgb(192,39,45);stop-opacity:1"/></radialGradient>
        <radialGradient id="_Radial56" cx="0" cy="0" r="1" gradientUnits="userSpaceOnUse" gradientTransform="matrix(2.1934,0,0,-2.1934,382.015,245.65)"><stop offset="0" style="stop-color:white;stop-opacity:1"/><stop offset="1" style="stop-color:rgb(192,39,45);stop-opacity:1"/></radialGradient>
        <radialGradient id="_Radial57" cx="0" cy="0" r="1" gradientUnits="userSpaceOnUse" gradientTransform="matrix(2.1934,0,0,-2.1934,281.685,70.07)"><stop offset="0" style="stop-color:white;stop-opacity:1"/><stop offset="1" style="stop-color:rgb(192,39,45);stop-opacity:1"/></radialGradient>
        <radialGradient id="_Radial58" cx="0" cy="0" r="1" gradientUnits="userSpaceOnUse" gradientTransform="matrix(2.1934,0,0,-2.1934,345.295,212.54)"><stop offset="0" style="stop-color:white;stop-opacity:1"/><stop offset="1" style="stop-color:rgb(192,39,45);stop-opacity:1"/></radialGradient>
        <radialGradient id="_Radial59" cx="0" cy="0" r="1" gradientUnits="userSpaceOnUse" gradientTransform="matrix(2.1934,0,0,-2.1934,356.505,237.4)"><stop offset="0" style="stop-color:white;stop-opacity:1"/><stop offset="1" style="stop-color:rgb(192,39,45);stop-opacity:1"/></radialGradient>
        <radialGradient id="_Radial60" cx="0" cy="0" r="1" gradientUnits="userSpaceOnUse" gradientTransform="matrix(2.1938,0,0,-2.1938,294.855,143.33)"><stop offset="0" style="stop-color:white;stop-opacity:1"/><stop offset="1" style="stop-color:rgb(192,39,45);stop-opacity:1"/></radialGradient>
        <radialGradient id="_Radial61" cx="0" cy="0" r="1" gradientUnits="userSpaceOnUse" gradientTransform="matrix(2.1934,0,0,-2.1934,261.635,123.03)"><stop offset="0" style="stop-color:white;stop-opacity:1"/><stop offset="1" style="stop-color:rgb(192,39,45);stop-opacity:1"/></radialGradient>
        <radialGradient id="_Radial62" cx="0" cy="0" r="1" gradientUnits="userSpaceOnUse" gradientTransform="matrix(2.1934,0,0,-2.1934,261.455,106.77)"><stop offset="0" style="stop-color:white;stop-opacity:1"/><stop offset="1" style="stop-color:rgb(192,39,45);stop-opacity:1"/></radialGradient>
        <radialGradient id="_Radial63" cx="0" cy="0" r="1" gradientUnits="userSpaceOnUse" gradientTransform="matrix(2.1934,0,0,-2.1934,297.045,109.45)"><stop offset="0" style="stop-color:white;stop-opacity:1"/><stop offset="1" style="stop-color:rgb(192,39,45);stop-opacity:1"/></radialGradient>
        <radialGradient id="_Radial64" cx="0" cy="0" r="1" gradientUnits="userSpaceOnUse" gradientTransform="matrix(2.1934,0,0,-2.1934,344.325,186.46)"><stop offset="0" style="stop-color:white;stop-opacity:1"/><stop offset="1" style="stop-color:rgb(192,39,45);stop-opacity:1"/></radialGradient>
        <radialGradient id="_Radial65" cx="0" cy="0" r="1" gradientUnits="userSpaceOnUse" gradientTransform="matrix(2.1934,0,0,-2.1934,330.675,161.36)"><stop offset="0" style="stop-color:white;stop-opacity:1"/><stop offset="1" style="stop-color:rgb(192,39,45);stop-opacity:1"/></radialGradient>
        <radialGradient id="_Radial66" cx="0" cy="0" r="1" gradientUnits="userSpaceOnUse" gradientTransform="matrix(2.1938,0,0,-2.1938,319.945,208.15)"><stop offset="0" style="stop-color:white;stop-opacity:1"/><stop offset="1" style="stop-color:rgb(192,39,45);stop-opacity:1"/></radialGradient>
        <radialGradient id="_Radial67" cx="0" cy="0" r="1" gradientUnits="userSpaceOnUse" gradientTransform="matrix(2.1934,0,0,-2.1934,297.045,198.65)"><stop offset="0" style="stop-color:white;stop-opacity:1"/><stop offset="1" style="stop-color:rgb(192,39,45);stop-opacity:1"/></radialGradient>
        <radialGradient id="_Radial68" cx="0" cy="0" r="1" gradientUnits="userSpaceOnUse" gradientTransform="matrix(2.1934,0,0,-2.1934,324.225,193.53)"><stop offset="0" style="stop-color:white;stop-opacity:1"/><stop offset="1" style="stop-color:rgb(192,39,45);stop-opacity:1"/></radialGradient>
        <radialGradient id="_Radial69" cx="0" cy="0" r="1" gradientUnits="userSpaceOnUse" gradientTransform="matrix(2.1936,0,0,-2.1936,331.165,233.01)"><stop offset="0" style="stop-color:white;stop-opacity:1"/><stop offset="1" style="stop-color:rgb(192,39,45);stop-opacity:1"/></radialGradient>
        <radialGradient id="_Radial70" cx="0" cy="0" r="1" gradientUnits="userSpaceOnUse" gradientTransform="matrix(2.1934,0,0,-2.1934,268.765,176.23)"><stop offset="0" style="stop-color:white;stop-opacity:1"/><stop offset="1" style="stop-color:rgb(192,39,45);stop-opacity:1"/></radialGradient>
        <linearGradient id="_Linear71" x1="0" y1="0" x2="1" y2="0" gradientUnits="userSpaceOnUse" gradientTransform="matrix(111.778,0,0,111.778,99.2468,194.56)"><stop offset="0" style="stop-color:rgb(40,144,58);stop-opacity:1"/><stop offset="1" style="stop-color:rgb(140,198,63);stop-opacity:1"/></linearGradient>
        <linearGradient id="_Linear72" x1="0" y1="0" x2="1" y2="0" gradientUnits="userSpaceOnUse" gradientTransform="matrix(122.811,0,0,122.811,81.1338,218.03)"><stop offset="0" style="stop-color:rgb(0,110,58);stop-opacity:1"/><stop offset="1" style="stop-color:rgb(40,144,58);stop-opacity:1"/></linearGradient>
        <linearGradient id="_Linear73" x1="0" y1="0" x2="1" y2="0" gradientUnits="userSpaceOnUse" gradientTransform="matrix(25.765,14.16,-14.16,25.765,58.4018,199.4)"><stop offset="0" style="stop-color:rgb(255,194,14);stop-opacity:1"/><stop offset="1" style="stop-color:rgb(255,242,0);stop-opacity:1"/></linearGradient>
        <radialGradient id="_Radial74" cx="0" cy="0" r="1" gradientUnits="userSpaceOnUse" gradientTransform="matrix(7.4811,0,0,-7.4811,104.665,234.31)"><stop offset="0" style="stop-color:rgb(247,147,29);stop-opacity:1"/><stop offset="1" style="stop-color:rgb(255,194,14);stop-opacity:1"/></radialGradient>
        <radialGradient id="_Radial75" cx="0" cy="0" r="1" gradientUnits="userSpaceOnUse" gradientTransform="matrix(8.5158,0,0,-8.5158,127.515,258.5)"><stop offset="0" style="stop-color:rgb(247,147,29);stop-opacity:1"/><stop offset="1" style="stop-color:rgb(255,194,14);stop-opacity:1"/></radialGradient>
        <linearGradient id="_Linear76" x1="0" y1="0" x2="1" y2="0" gradientUnits="userSpaceOnUse" gradientTransform="matrix(1.93555e-15,-31.61,31.61,1.93555e-15,176.215,332.72)"><stop offset="0" style="stop-color:rgb(255,194,14);stop-opacity:1"/><stop offset="1" style="stop-color:rgb(255,242,0);stop-opacity:1"/></linearGradient>
        <linearGradient id="_Linear77" x1="0" y1="0" x2="1" y2="0" gradientUnits="userSpaceOnUse" gradientTransform="matrix(59.886,9.25,-9.25,59.886,74.4088,199.31)"><stop offset="0" style="stop-color:rgb(247,147,29);stop-opacity:1"/><stop offset="0.17" style="stop-color:rgb(255,194,14);stop-opacity:1"/><stop offset="1" style="stop-color:rgb(255,242,0);stop-opacity:1"/></linearGradient>
        <linearGradient id="_Linear78" x1="0" y1="0" x2="1" y2="0" gradientUnits="userSpaceOnUse" gradientTransform="matrix(61.774,33.51,-33.51,61.774,87.3708,148.86)"><stop offset="0" style="stop-color:rgb(247,147,29);stop-opacity:1"/><stop offset="0.17" style="stop-color:rgb(255,194,14);stop-opacity:1"/><stop offset="1" style="stop-color:rgb(255,242,0);stop-opacity:1"/></linearGradient>
        <linearGradient id="_Linear79" x1="0" y1="0" x2="1" y2="0" gradientUnits="userSpaceOnUse" gradientTransform="matrix(9.24,0,0,9.24,237.465,297.38)"><stop offset="0" style="stop-color:rgb(247,147,29);stop-opacity:1"/><stop offset="0.17" style="stop-color:rgb(255,194,14);stop-opacity:1"/><stop offset="1" style="stop-color:rgb(255,242,0);stop-opacity:1"/></linearGradient>
        <linearGradient id="_Linear80" x1="0" y1="0" x2="1" y2="0" gradientUnits="userSpaceOnUse" gradientTransform="matrix(4.48,2.43,-2.43,4.48,105.345,307.71)"><stop offset="0" style="stop-color:rgb(247,147,29);stop-opacity:1"/><stop offset="0.17" style="stop-color:rgb(255,194,14);stop-opacity:1"/><stop offset="1" style="stop-color:rgb(255,242,0);stop-opacity:1"/></linearGradient>
    </defs>
</svg>
